<?xml version="1.0" encoding="UTF-8"?>
<svg id="Layer_1" xmlns="http://www.w3.org/2000/svg" xmlns:xlink="http://www.w3.org/1999/xlink" version="1.1" viewBox="0 0 4054.02 1280">
  <defs>
    <style>
      .st0 { fill: #292998; }
      .st1 { fill: url(#linear-gradient); }
      .st2 { fill: #141423; }
      .st3 { fill: #f1642b; }
    </style>
    <linearGradient id="linear-gradient" x1="589.48" y1="162.46" x2="1685.7" y2="1082.3" gradientTransform="translate(0 1260) scale(1 -1)" gradientUnits="userSpaceOnUse">
      <stop offset="0" stop-color="#ff3708"/>
      <stop offset="1" stop-color="#f29d31"/>
    </linearGradient>
  </defs>
  <g>
    <path class="st0" d="M571.28,1174.83c-31.79-52.73-48.51-116.32-48.2-186.43.46-104.94,39.23-219.55,109.16-322.75l9.13-13.6.32-.48.33-.47c52.1-73.3,121-151.92,205.58-234.73h-65.15l97.45-350.05h-137.77l-97.45,350.05h-139.61l97.45-350.05h-137.77l-97.45,350.05H115.74l-25.72,125.69h242.29l-45.21,162.38H25.72L0,830.13h252.1l-95.96,344.7h137.77l95.96-344.7h139.61l-95.96,344.7h137.76ZM424.88,704.44l45.21-162.38h139.61l-45.21,162.38h-139.61Z"/>
    <path class="st1" d="M1444.05,374.55L1536.59,0l-380.22,79.43,82.47,84.61c-54.63,42.16-134.55,105.96-219.15,180.79-143.83,127.21-244.21,237.47-310.96,331.36l-9.18,13.67c-133.48,196.91-138.39,422.35,1.58,532.11,49.39,38.73,111.88,58.03,178,58.03,97.17,0,202.21-41.68,285.17-124.62,166.55-166.52,186.14-382.87,193.94-471.6h-306.61l-115.74,153.92h238.82c-20.55,69.16-56.33,145.11-120.48,209.24-50.3,50.29-114.13,79.14-175.11,79.14-22.86,0-55.63-4.32-81.86-24.89-39.57-31.03-46.15-86.58-45.21-116.91,2.6-83.54,37.5-149.62,37.5-149.62,85.32-179.01,389.56-435.38,555.29-561.87l99.2,101.76h.01Z"/>
  </g>
  <g>
    <g>
      <path class="st2" d="M2045.97,170.15v386.23h-77.47v-164.34h-165.45v164.34h-77.47V170.15h77.47v158.81h165.45v-158.81h77.47Z"/>
      <path class="st2" d="M2120.95,319.55c12.35-23.98,29.13-42.41,50.35-55.33,21.21-12.91,44.9-19.37,71.1-19.37,22.87,0,42.88,4.61,60.04,13.84,17.15,9.22,30.89,20.84,41.22,34.86v-43.71h78.02v306.55h-78.02v-44.82c-9.96,14.39-23.71,26.29-41.22,35.69-17.53,9.41-37.72,14.11-60.59,14.11-25.83,0-49.34-6.63-70.55-19.92-21.22-13.28-38-32-50.35-56.16-12.36-24.16-18.54-51.92-18.54-83.28s6.18-58.46,18.54-82.45h0ZM2332.6,354.68c-7.38-13.46-17.35-23.79-29.88-30.99-12.55-7.2-26.01-10.79-40.39-10.79s-27.67,3.51-39.84,10.52c-12.17,7.01-22.05,17.25-29.6,30.71-7.57,13.47-11.34,29.42-11.34,47.87s3.78,34.58,11.34,48.42c7.55,13.83,17.52,24.44,29.88,31.82,12.35,7.38,25.54,11.06,39.56,11.06s27.85-3.6,40.39-10.79c12.54-7.19,22.5-17.51,29.88-30.99,7.37-13.46,11.07-29.6,11.07-48.41s-3.69-34.95-11.07-48.42h0Z"/>
      <path class="st2" d="M2547.29,547.8c-19.92-9.04-35.69-21.3-47.31-36.8-11.62-15.49-17.98-32.64-19.09-51.46h78.02c1.47,11.81,7.28,21.58,17.43,29.32,10.14,7.75,22.77,11.63,37.9,11.63s26.29-2.95,34.58-8.85c8.3-5.9,12.45-13.47,12.45-22.69,0-9.96-5.08-17.43-15.22-22.41-10.15-4.98-26.28-10.42-48.42-16.32-22.88-5.53-41.59-11.25-56.16-17.15-14.58-5.9-27.11-14.95-37.63-27.12-10.52-12.17-15.77-28.58-15.77-49.24,0-16.96,4.88-32.46,14.66-46.48,9.77-14.01,23.79-25.08,42.06-33.2,18.26-8.11,39.75-12.17,64.46-12.17,36.52,0,65.66,9.13,87.43,27.39,21.76,18.27,33.76,42.89,35.97,73.87h-74.15c-1.11-12.17-6.18-21.86-15.22-29.05-9.04-7.2-21.12-10.79-36.24-10.79-14.02,0-24.81,2.58-32.37,7.74-7.57,5.17-11.34,12.36-11.34,21.58,0,10.33,5.16,18.17,15.49,23.52,10.32,5.35,26.37,10.79,48.14,16.32,22.13,5.53,40.4,11.26,54.78,17.15,14.39,5.91,26.84,15.04,37.35,27.39,10.51,12.36,15.95,28.69,16.32,48.97,0,17.7-4.89,33.57-14.66,47.59-9.78,14.02-23.79,24.99-42.06,32.92-18.26,7.93-39.56,11.9-63.91,11.9s-47.59-4.52-67.51-13.55h.02Z"/>
      <path class="st2" d="M3033.67,260.62c18.07,10.15,32.18,25.09,42.33,44.82,10.14,19.74,15.22,43.44,15.22,71.1v179.84h-77.47v-169.32c0-24.35-6.09-43.07-18.26-56.16-12.18-13.09-28.77-19.65-49.8-19.65s-38.27,6.56-50.63,19.65c-12.36,13.1-18.54,31.82-18.54,56.16v169.32h-77.47V146.91h77.47v141.1c9.96-13.27,23.24-23.7,39.84-31.26,16.6-7.55,35.04-11.34,55.33-11.34,23.24,0,43.89,5.08,61.97,15.22h0Z"/>
      <path class="st2" d="M3255.01,313.46v148.3c0,10.33,2.49,17.8,7.47,22.41s13.36,6.92,25.18,6.92h35.97v65.29h-48.69c-65.3,0-97.94-31.73-97.94-95.18v-147.74h-36.52v-63.63h36.52v-75.81h78.02v75.81h68.62v63.63h-68.63Z"/>
      <path class="st2" d="M3378.12,319.55c12.35-23.98,29.13-42.41,50.35-55.33,21.21-12.91,44.9-19.37,71.1-19.37,22.87,0,42.88,4.61,60.04,13.84,17.15,9.22,30.89,20.84,41.22,34.86v-43.71h78.02v306.55h-78.02v-44.82c-9.96,14.39-23.71,26.29-41.22,35.69-17.53,9.41-37.72,14.11-60.59,14.11-25.83,0-49.34-6.63-70.55-19.92-21.22-13.28-38-32-50.35-56.16-12.36-24.16-18.54-51.92-18.54-83.28s6.18-58.46,18.54-82.45h0ZM3589.77,354.68c-7.38-13.46-17.35-23.79-29.88-30.99-12.55-7.2-26.01-10.79-40.39-10.79s-27.67,3.51-39.84,10.52c-12.17,7.01-22.05,17.25-29.6,30.71-7.57,13.47-11.34,29.42-11.34,47.87s3.78,34.58,11.34,48.42c7.55,13.83,17.52,24.44,29.88,31.82,12.35,7.38,25.54,11.06,39.56,11.06s27.85-3.6,40.39-10.79,22.5-17.51,29.88-30.99c7.37-13.46,11.07-29.6,11.07-48.41s-3.69-34.95-11.07-48.42h0Z"/>
      <path class="st2" d="M3935.05,258.41c17.33,9.04,30.99,20.75,40.95,35.14v-43.71h78.02v308.76c0,28.41-5.72,53.76-17.15,76.09-11.44,22.32-28.59,40.02-51.46,53.12-22.88,13.09-50.55,19.65-83,19.65-43.53,0-79.22-10.15-107.07-30.43-27.86-20.29-43.63-47.97-47.31-83h76.91c4.06,14.01,12.81,25.18,26.28,33.47,13.46,8.3,29.79,12.45,48.97,12.45,22.5,0,40.76-6.73,54.78-20.19,14.02-13.47,21.03-33.85,21.03-61.15v-47.59c-9.96,14.39-23.71,26.38-41.22,35.97-17.53,9.59-37.54,14.38-60.04,14.38-25.82,0-49.44-6.63-70.83-19.92-21.4-13.28-38.27-32-50.63-56.16s-18.54-51.92-18.54-83.28,6.18-58.46,18.54-82.45c12.35-23.98,29.13-42.41,50.35-55.33,21.21-12.91,44.9-19.37,71.1-19.37,22.87,0,42.97,4.52,60.32,13.56h0ZM3964.93,354.68c-7.38-13.46-17.35-23.79-29.88-30.99-12.55-7.2-26.01-10.79-40.39-10.79s-27.67,3.51-39.84,10.52-22.05,17.25-29.6,30.71c-7.57,13.47-11.34,29.42-11.34,47.87s3.78,34.58,11.34,48.42c7.55,13.83,17.52,24.44,29.88,31.82,12.35,7.38,25.54,11.06,39.56,11.06s27.85-3.6,40.39-10.79,22.5-17.51,29.88-30.99c7.37-13.46,11.07-29.6,11.07-48.41s-3.69-34.95-11.07-48.42h0Z"/>
      <path class="st2" d="M2042.49,808.97c-9.79-17.93-23.24-31.59-40.36-40.98-17.12-9.37-37.11-14.06-59.94-14.06-25.29,0-47.71,5.71-67.28,17.12-19.57,11.42-34.86,27.73-45.87,48.92-11.01,21.21-16.51,45.67-16.51,73.39s5.6,53.42,16.82,74.61c11.21,21.21,26.8,37.52,46.78,48.93,19.97,11.42,43.21,17.12,69.72,17.12,32.61,0,59.32-8.66,80.12-25.99,20.79-17.32,34.45-41.48,40.98-72.47h-146.78v-65.44h231.18v74.61c-5.71,29.76-17.95,57.29-36.69,82.56-18.76,25.28-42.92,45.56-72.47,60.85-29.57,15.29-62.69,22.94-99.38,22.94-41.19,0-78.39-9.27-111.62-27.83-33.24-18.54-59.32-44.34-78.28-77.37s-28.44-70.53-28.44-112.53,9.48-79.6,28.44-112.84c18.96-33.23,45.05-59.11,78.28-77.67,33.23-18.54,70.23-27.82,111-27.82,48.1,0,89.9,11.72,125.37,35.17,35.47,23.45,59.94,56.37,73.39,98.77h-98.46Z"/>
      <path class="st2" d="M2570.28,963.7h-247.69c2.03,24.47,10.6,43.63,25.69,57.49,15.08,13.86,33.64,20.79,55.65,20.79,31.8,0,54.43-13.65,67.88-40.98h92.35c-9.78,32.63-28.54,59.43-56.27,80.42-27.73,21-61.77,31.5-102.13,31.5-32.62,0-61.88-7.23-87.76-21.71-25.9-14.47-46.08-34.96-60.55-61.47-14.48-26.5-21.71-57.08-21.71-91.74s7.13-65.85,21.41-92.35c14.27-26.5,34.25-46.88,59.94-61.15s55.25-21.41,88.68-21.41,61.05,6.94,86.54,20.8c25.48,13.86,45.26,33.54,59.33,59.01,14.06,25.49,21.1,54.74,21.1,87.76,0,12.24-.82,23.24-2.45,33.03h-.01ZM2484.05,906.22c-.41-22.02-8.36-39.65-23.85-52.91-15.5-13.24-34.46-19.87-56.88-19.87-21.21,0-39.05,6.42-53.51,19.26-14.48,12.85-23.35,30.69-26.6,53.52h160.85-.01Z"/>
      <path class="st2" d="M2963.52,801.94c24.86,25.48,37.31,61.06,37.31,106.72v198.76h-85.62v-187.15c0-26.91-6.73-47.6-20.18-62.08-13.46-14.46-31.8-21.71-55.04-21.71s-42.31,7.25-55.96,21.71c-13.67,14.48-20.49,35.17-20.49,62.08v187.15h-85.62v-338.82h85.62v42.2c11.41-14.68,25.99-26.19,43.73-34.56,17.74-8.35,37.2-12.54,58.41-12.54,40.36,0,72.98,12.75,97.85,38.22v.02Z"/>
      <path class="st2" d="M3210.6,768.61v338.82h-85.62v-338.82h85.62Z"/>
      <path class="st2" d="M3657.67,768.61v338.82h-86.24v-42.81c-11.01,14.68-25.38,26.2-43.12,34.56-17.74,8.35-37,12.54-57.79,12.54-26.51,0-49.95-5.6-70.33-16.82-20.39-11.21-36.39-27.72-48.01-49.54-11.62-21.81-17.43-47.79-17.43-77.98v-198.76h85.62v186.53c0,26.91,6.73,47.61,20.18,62.08,13.45,14.48,31.8,21.71,55.04,21.71s42.2-7.23,55.65-21.71c13.46-14.47,20.18-35.17,20.18-62.08v-186.53h86.25Z"/>
      <path class="st2" d="M3839.92,1097.95c-22.02-9.99-39.45-23.55-52.29-40.67-12.84-17.13-19.88-36.08-21.1-56.88h86.24c1.62,13.05,8.05,23.85,19.26,32.42,11.21,8.56,25.17,12.84,41.89,12.84s29.05-3.26,38.22-9.78c9.17-6.51,13.76-14.87,13.76-25.08,0-11.01-5.61-19.26-16.82-24.76-11.22-5.5-29.05-11.52-53.51-18.05-25.28-6.11-45.97-12.43-62.08-18.96-16.11-6.52-29.97-16.52-41.59-29.97-11.62-13.45-17.43-31.59-17.43-54.43,0-18.75,5.4-35.88,16.21-51.38,10.8-15.49,26.3-27.72,46.48-36.7,20.18-8.96,43.93-13.45,71.25-13.45,40.36,0,72.57,10.09,96.63,30.28,24.05,20.18,37.31,47.4,39.75,81.65h-81.95c-1.23-13.45-6.83-24.16-16.82-32.11-10-7.95-23.35-11.92-40.06-11.92-15.5,0-27.43,2.86-35.78,8.56-8.36,5.72-12.54,13.67-12.54,23.85,0,11.42,5.71,20.09,17.12,25.99,11.41,5.92,29.14,11.93,53.21,18.05,24.46,6.11,44.64,12.44,60.55,18.96,15.9,6.53,29.66,16.62,41.28,30.28,11.62,13.67,17.63,31.7,18.04,54.12,0,19.57-5.41,37.11-16.21,52.6-10.81,15.5-26.3,27.62-46.48,36.39-20.18,8.76-43.73,13.15-70.64,13.15s-52.6-5-74.61-14.98l.02-.02Z"/>
    </g>
    <path class="st3" d="M3167.6,713.19c34.15,0,65.54,9.38,90.43,25.05l-90.43-133.37-90.43,133.37c24.9-15.67,56.29-25.05,90.43-25.05Z"/>
  </g>
</svg>
